<mxfile host="app.diagrams.net" modified="2023-08-22T02:37:36.181Z" agent="Mozilla/5.0 (Windows NT 10.0; Win64; x64) AppleWebKit/537.36 (KHTML, like Gecko) Chrome/115.0.0.0 Safari/537.36" etag="EV7UyfHC53H17WjLWa12" version="21.3.0" type="github">
  <diagram name="第 1 页" id="WHLdjsrtsrP4uaIjlMfV">
    <mxGraphModel dx="989" dy="517" grid="1" gridSize="10" guides="1" tooltips="1" connect="1" arrows="1" fold="1" page="1" pageScale="1" pageWidth="827" pageHeight="1169" math="0" shadow="0">
      <root>
        <mxCell id="0" />
        <mxCell id="1" parent="0" />
        <mxCell id="lRdCT8LYGJLF3MoTsS4L-8" style="edgeStyle=orthogonalEdgeStyle;curved=1;rounded=0;orthogonalLoop=1;jettySize=auto;html=1;exitX=0.5;exitY=1;exitDx=0;exitDy=0;" parent="1" source="lRdCT8LYGJLF3MoTsS4L-1" target="lRdCT8LYGJLF3MoTsS4L-4" edge="1">
          <mxGeometry relative="1" as="geometry" />
        </mxCell>
        <mxCell id="lRdCT8LYGJLF3MoTsS4L-12" style="edgeStyle=orthogonalEdgeStyle;curved=1;rounded=0;orthogonalLoop=1;jettySize=auto;html=1;exitX=0.5;exitY=1;exitDx=0;exitDy=0;entryX=0.5;entryY=0;entryDx=0;entryDy=0;" parent="1" source="lRdCT8LYGJLF3MoTsS4L-1" target="lRdCT8LYGJLF3MoTsS4L-10" edge="1">
          <mxGeometry relative="1" as="geometry" />
        </mxCell>
        <mxCell id="lRdCT8LYGJLF3MoTsS4L-1" value="创建文件名称" style="rounded=1;whiteSpace=wrap;html=1;" parent="1" vertex="1">
          <mxGeometry x="350" y="20" width="80" height="30" as="geometry" />
        </mxCell>
        <mxCell id="lRdCT8LYGJLF3MoTsS4L-16" style="edgeStyle=orthogonalEdgeStyle;curved=1;rounded=0;orthogonalLoop=1;jettySize=auto;html=1;exitX=0.5;exitY=1;exitDx=0;exitDy=0;" parent="1" source="lRdCT8LYGJLF3MoTsS4L-4" target="lRdCT8LYGJLF3MoTsS4L-14" edge="1">
          <mxGeometry relative="1" as="geometry" />
        </mxCell>
        <mxCell id="lRdCT8LYGJLF3MoTsS4L-17" style="edgeStyle=orthogonalEdgeStyle;curved=1;rounded=0;orthogonalLoop=1;jettySize=auto;html=1;exitX=0.5;exitY=1;exitDx=0;exitDy=0;entryX=0.549;entryY=0.099;entryDx=0;entryDy=0;entryPerimeter=0;" parent="1" source="lRdCT8LYGJLF3MoTsS4L-4" target="lRdCT8LYGJLF3MoTsS4L-15" edge="1">
          <mxGeometry relative="1" as="geometry" />
        </mxCell>
        <mxCell id="lRdCT8LYGJLF3MoTsS4L-4" value="vue&amp;nbsp;" style="rounded=1;whiteSpace=wrap;html=1;" parent="1" vertex="1">
          <mxGeometry x="240" y="150" width="70" height="20" as="geometry" />
        </mxCell>
        <mxCell id="lRdCT8LYGJLF3MoTsS4L-10" value="react" style="rounded=1;whiteSpace=wrap;html=1;" parent="1" vertex="1">
          <mxGeometry x="530" y="150" width="70" height="20" as="geometry" />
        </mxCell>
        <mxCell id="lRdCT8LYGJLF3MoTsS4L-14" value="template （项目模板）" style="rounded=1;whiteSpace=wrap;html=1;" parent="1" vertex="1">
          <mxGeometry x="100" y="270" width="140" height="25" as="geometry" />
        </mxCell>
        <mxCell id="lRdCT8LYGJLF3MoTsS4L-15" value="modules (页面组件等）" style="rounded=1;whiteSpace=wrap;html=1;" parent="1" vertex="1">
          <mxGeometry x="310" y="270" width="150" height="25" as="geometry" />
        </mxCell>
      </root>
    </mxGraphModel>
  </diagram>
</mxfile>
